<?xml version="1.0" standalone="no"?>
<!DOCTYPE svg PUBLIC "-//W3C//DTD SVG 20010904//EN"
 "http://www.w3.org/TR/2001/REC-SVG-20010904/DTD/svg10.dtd">
<svg version="1.0" xmlns="http://www.w3.org/2000/svg"
 width="1080.000000pt" height="1080.000000pt" viewBox="0 0 1080.000000 1080.000000"
 preserveAspectRatio="xMidYMid meet">
<metadata>
Created by potrace 1.14, written by Peter Selinger 2001-2017
</metadata>
<g transform="translate(0.000000,1080.000000) scale(0.100000,-0.100000)"
fill="#000000" stroke="none">
<path d="M1140 10793 c-176 -27 -303 -68 -441 -139 -339 -175 -580 -490 -675
-884 -18 -72 -19 -258 -22 -4310 -2 -3120 0 -4259 8 -4325 64 -503 434 -940
915 -1080 201 -58 -90 -55 4470 -55 4503 0 4279 -2 4460 49 493 139 856 556
930 1066 22 152 22 8445 0 8580 -80 493 -412 887 -878 1039 -216 71 160 66
-4519 65 -2323 -1 -4234 -4 -4248 -6z m4575 -2444 c577 -61 1127 -293 1580
-668 492 -407 853 -990 994 -1607 55 -239 74 -410 74 -669 1 -511 -109 -954
-348 -1404 -138 -258 -301 -477 -520 -696 -489 -489 -1097 -780 -1785 -856
-143 -15 -480 -16 -620 0 -385 43 -707 141 -1055 320 -634 326 -1133 880
-1398 1551 -138 349 -200 687 -200 1085 1 703 236 1352 686 1895 390 470 944
821 1532 970 353 90 709 116 1060 79z"/>
<path d="M5115 7818 c-435 -49 -889 -241 -1245 -526 -490 -393 -822 -999 -889
-1624 -14 -125 -14 -411 0 -536 48 -449 237 -901 527 -1261 392 -488 970 -808
1602 -887 147 -18 433 -18 580 0 456 57 887 239 1239 525 491 396 808 970 887
1601 18 150 18 434 -1 590 -77 620 -401 1203 -886 1592 -360 290 -812 479
-1261 527 -115 13 -439 12 -553 -1z m404 -563 c59 -30 94 -67 123 -130 l23
-50 3 -755 3 -755 475 -238 c295 -148 489 -251 513 -272 80 -73 106 -200 62
-300 -46 -103 -132 -159 -245 -158 l-69 0 -573 286 c-315 157 -588 300 -608
317 -19 17 -48 57 -63 88 l-28 57 0 865 0 865 23 50 c66 144 223 201 361 130z"/>
</g>
</svg>
